:SAMPLES-PER-SECOND 30
:FRAME-RANGE 1-2775
:FULLY-SPECIFIED
:DEGREES
1648
root  -2.86096 40.1347 -16.0946 14.2197 4.48692 -1.96075
RightUpLeg  -15.2074 -5.64009 -4.10983
RightLeg  -3.16558 -12.1093 2.87229
RightFoot  5.89665 -1.13991 7.77645
RightToes  -5.28216e-011 1.2921e-014 -6.02303e-014
Spine  6.61636 0.270428 0.729239
Spine1  -1.48439 1.81607 -8.85033
HEad  -42.4722 13.3502 -16.184
LeftShoulder1  0.354939 -17.0608 7.68353
LeftArm  32.6975 -58.6346 -38.8596
LeftForeArm  -10.8193 -63.974 -25.275
LeftHand  1.51692 -1.25443 -26.0399
RightShoulder  0.783121 23.6577 -6.38363
RightArm  -13.4173 29.7197 -0.183124
RightForeArm  44.2168 77.5722 100.759
RightHand  1.23983 -1.19772 33.8472
LeftUpLeg  -16.6951 11.5336 11.4744
LeftLeg  2.25925 -1.99514 -2.99665
LeftFoot  4.16889 1.3081 -9.7746
LeftToes  -2.158e-010 -1.26819e-010 -1.05346e-011
1649
root  -2.86128 40.1312 -16.025 14.4909 4.31927 -1.9866
RightUpLeg  -15.3846 -5.40179 -4.01748
RightLeg  -3.24225 -12.1185 2.71527
RightFoot  5.8057 -1.14506 7.84737
RightToes  -5.28216e-011 1.2921e-014 -6.02303e-014
Spine  6.60194 0.461333 1.21103
Spine1  -1.83379 2.08445 -9.2905
HEad  -42.4372 13.8807 -16.6978
LeftShoulder1  0.462502 -16.2237 6.97514
LeftArm  35.1598 -59.9388 -39.5264
LeftForeArm  -11.3129 -64.7624 -26.3586
LeftHand  1.41782 -0.882802 -25.8405
RightShoulder  0.751642 23.9902 -6.55461
RightArm  -12.5632 29.6285 0.217127
RightForeArm  46.562 77.4114 103.843
RightHand  1.18218 -1.37054 33.738
LeftUpLeg  -16.6703 11.6217 11.5425
LeftLeg  2.00512 -1.975 -3.05964
LeftFoot  4.13593 1.30778 -9.79179
LeftToes  -2.158e-010 -1.26819e-010 -1.05346e-011
1650
root  -2.85408 40.1297 -15.967 14.7092 4.2729 -1.94276
RightUpLeg  -15.5184 -5.22139 -3.99493
RightLeg  -3.28566 -12.331 2.53463
RightFoot  5.73579 -1.14919 7.93071
RightToes  -5.28216e-011 1.2921e-014 -6.02303e-014
Spine  6.46253 0.5442 1.5044
Spine1  -1.92274 2.21488 -9.54355
HEad  -42.459 14.3283 -16.9035
LeftShoulder1  0.545691 -15.344 6.34385
LeftArm  36.9008 -61.1534 -39.7565
LeftForeArm  -11.1986 -65.5308 -27.4344
LeftHand  1.34556 -0.626802 -25.6151
RightShoulder  0.726075 24.2251 -6.68657
RightArm  -12.3026 29.6664 0.448333
RightForeArm  46.9448 77.398 104.132
RightHand  1.22693 -1.21349 33.6415
LeftUpLeg  -16.5119 11.5591 11.5055
LeftLeg  1.47454 -1.90154 -3.04634
LeftFoot  4.08436 1.33176 -9.99848
LeftToes  -2.158e-010 -1.26819e-010 -1.05346e-011
1651
root  -2.84305 40.1316 -15.9228 14.8471 4.18089 -1.89268
RightUpLeg  -15.6186 -5.20871 -4.03161
RightLeg  -3.25659 -12.2785 2.47976
RightFoot  5.65934 -1.14669 7.92599
RightToes  -5.28216e-011 1.2921e-014 -6.02303e-014
Spine  6.43814 0.647968 1.79122
Spine1  -2.09985 2.36613 -9.80325
HEad  -42.3506 14.9332 -17.0566
LeftShoulder1  0.645361 -14.5693 5.56985
LeftArm  38.7375 -62.3907 -39.9434
LeftForeArm  -11.5844 -66.0186 -28.2061
LeftHand  1.29087 -0.390561 -25.6194
RightShoulder  0.685368 24.2243 -6.85371
RightArm  -12.5593 29.5212 0.475363
RightForeArm  50.5705 77.1862 107.613
RightHand  1.20612 -1.26567 33.5182
LeftUpLeg  -16.2217 11.4082 11.4237
LeftLeg  0.826891 -1.68161 -2.9479
LeftFoot  4.1482 1.3327 -9.9666
LeftToes  -2.158e-010 -1.26819e-010 -1.05346e-011
1652
root  -2.84157 40.1349 -15.879 14.9011 4.2234 -1.90698
RightUpLeg  -15.5469 -5.16264 -4.01482
RightLeg  -3.35013 -12.3334 2.47914
RightFoot  5.62097 -1.14238 7.89482
RightToes  -5.28216e-011 1.2921e-014 -6.02303e-014
Spine  6.2915 0.647124 1.85884
Spine1  -2.03907 2.36313 -9.70623
HEad  -42.1631 15.557 -17.3415
LeftShoulder1  0.738056 -13.7725 4.7665
LeftArm  39.8548 -63.3991 -39.6005
LeftForeArm  -11.3391 -66.6807 -29.2373
LeftHand  1.22211 -0.151281 -25.3563
RightShoulder  0.604793 24.2499 -7.18708
RightArm  -12.8323 29.5938 0.392368
RightForeArm  49.3488 77.3319 105.641
RightHand  1.26932 -1.09851 33.816
LeftUpLeg  -15.9787 11.3611 11.4361
LeftLeg  0.353854 -1.67402 -2.89992
LeftFoot  4.19648 1.34388 -10.019
LeftToes  -2.158e-010 -1.26819e-010 -1.05346e-011
1653
root  -2.84372 40.1424 -15.8501 14.9668 4.30544 -1.82524
RightUpLeg  -15.4481 -5.18239 -4.07987
RightLeg  -3.55717 -12.4101 2.4942
RightFoot  5.6051 -1.14506 7.96111
RightToes  -5.28216e-011 1.2921e-014 -6.02303e-014
Spine  6.21505 0.619193 1.69272
Spine1  -2.09289 2.2755 -9.41562
HEad  -42.0548 16.5728 -17.7243
LeftShoulder1  0.825424 -13.0118 3.93535
LeftArm  40.9028 -64.2005 -39.5454
LeftForeArm  -11.2613 -67.0201 -29.7994
LeftHand  1.18845 -0.056982 -25.1121
RightShoulder  0.532625 24.3995 -7.49528
RightArm  -12.6311 29.5896 0.517984
RightForeArm  49.6038 77.2989 106.1
RightHand  1.27523 -1.11529 34.0941
LeftUpLeg  -15.8314 11.3242 11.3813
LeftLeg  -0.038144 -1.72286 -2.92384
LeftFoot  4.39407 1.36477 -10.0511
LeftToes  -2.158e-010 -1.26819e-010 -1.05346e-011
1654
root  -2.84829 40.1482 -15.8309 15.0372 4.50197 -1.73465
RightUpLeg  -15.3957 -5.24985 -4.15841
RightLeg  -3.66243 -12.5381 2.52251
RightFoot  5.61506 -1.14141 7.9042
RightToes  -5.28216e-011 1.2921e-014 -6.02303e-014
Spine  6.05006 0.555007 1.60863
Spine1  -1.9353 2.1908 -9.2737
HEad  -42.2678 16.9333 -17.7347
LeftShoulder1  0.865084 -12.2746 3.37992
LeftArm  41.9278 -64.9299 -40.0199
LeftForeArm  -11.0883 -67.2411 -30.1639
LeftHand  1.16202 0.0115953 -24.8883
RightShoulder  0.501694 24.4978 -7.62889
RightArm  -12.7812 29.6691 0.572133
RightForeArm  47.0762 77.4883 102.965
RightHand  1.37322 -0.876236 34.6463
LeftUpLeg  -15.7997 11.227 11.2977
LeftLeg  -0.315833 -1.84429 -2.90956
LeftFoot  4.56249 1.39676 -10.1786
LeftToes  -2.158e-010 -1.26819e-010 -1.05346e-011
1655
root  -2.85844 40.1507 -15.8313 15.0288 4.70132 -1.70464
RightUpLeg  -15.3701 -5.2643 -4.18069
RightLeg  -3.62203 -12.6682 2.51605
RightFoot  5.51297 -1.15209 8.01967
RightToes  -5.28216e-011 1.2921e-014 -6.02303e-014
Spine  6.03129 0.498295 1.60928
Spine1  -1.82988 2.12187 -9.15519
HEad  -42.5251 17.1995 -17.9582
LeftShoulder1  0.903579 -11.5533 2.78651
LeftArm  42.5958 -65.4693 -40.5227
LeftForeArm  -10.8692 -67.375 -30.3769
LeftHand  1.15398 0.0275 -24.7958
RightShoulder  0.454608 24.6117 -7.82808
RightArm  -12.6133 29.6266 0.571539
RightForeArm  47.0069 77.4973 102.818
RightHand  1.39259 -0.779689 34.3858
LeftUpLeg  -15.8574 11.147 11.2582
LeftLeg  -0.335796 -1.93231 -2.85125
LeftFoot  4.67648 1.40464 -10.1661
LeftToes  -2.158e-010 -1.26819e-010 -1.05346e-011
1656
root  -2.86976 40.1483 -15.8463 15.0108 4.91724 -1.67392
RightUpLeg  -15.4167 -5.292 -4.19706
RightLeg  -3.44739 -12.8925 2.49555
RightFoot  5.46112 -1.1274 7.87585
RightToes  -5.28216e-011 1.2921e-014 -6.02303e-014
Spine  6.07295 0.441808 1.54221
Spine1  -1.80498 2.01153 -8.88608
HEad  -42.5751 17.3249 -17.8189
LeftShoulder1  0.945015 -10.8702 2.13056
LeftArm  43.405 -65.8407 -41.2871
LeftForeArm  -11.0992 -67.2314 -30.1479
LeftHand  1.16485 -0.0168421 -24.8143
RightShoulder  0.403188 24.7868 -8.04671
RightArm  -12.7072 29.6272 0.526055
RightForeArm  45.7545 77.5891 101.051
RightHand  1.47033 -0.588393 34.7737
LeftUpLeg  -15.9645 11.0836 11.2221
LeftLeg  -0.280803 -2.07545 -2.81718
LeftFoot  4.73411 1.41225 -10.1854
LeftToes  -2.158e-010 -1.26819e-010 -1.05346e-011
1657
root  -2.87833 40.1436 -15.8737 14.9513 5.18492 -1.62099
RightUpLeg  -15.4319 -5.35453 -4.24494
RightLeg  -3.2579 -13.0705 2.45562
RightFoot  5.35941 -1.12323 7.89132
RightToes  -5.28216e-011 1.2921e-014 -6.02303e-014
Spine  6.14927 0.332139 1.38198
Spine1  -1.76924 1.8211 -8.49505
HEad  -42.4834 17.589 -17.8792
LeftShoulder1  0.980429 -10.2171 1.47796
LeftArm  44.1906 -66.1957 -42.0132
LeftForeArm  -11.3949 -66.9656 -29.7201
LeftHand  1.18933 -0.15134 -24.6974
RightShoulder  0.329276 25.0277 -8.35566
RightArm  -12.645 29.6654 0.566291
RightForeArm  43.7401 77.6789 98.7873
RightHand  1.4733 -0.522662 34.381
LeftUpLeg  -16.0383 11.0268 11.1691
LeftLeg  -0.263381 -2.27568 -2.81406
LeftFoot  4.79205 1.4138 -10.1618
LeftToes  -2.158e-010 -1.26819e-010 -1.05346e-011
1658
root  -2.89512 40.1355 -15.9127 14.8817 5.38354 -1.60683
RightUpLeg  -15.4129 -5.32792 -4.23602
RightLeg  -3.18994 -13.2496 2.41076
RightFoot  5.26156 -1.12852 7.97843
RightToes  -5.28216e-011 1.2921e-014 -6.02303e-014
Spine  6.27409 0.264864 1.18752
Spine1  -1.76026 1.66721 -8.07453
HEad  -42.3976 18.5705 -18.4514
LeftShoulder1  1.00715 -9.57757 0.845774
LeftArm  44.9739 -66.7033 -42.7002
LeftForeArm  -11.8556 -66.6042 -29.1637
LeftHand  1.2172 -0.271383 -24.7165
RightShoulder  0.272909 25.191 -8.58692
RightArm  -12.7197 29.6094 0.495525
RightForeArm  44.2237 77.6558 99.3881
RightHand  1.47696 -0.548973 34.6435
LeftUpLeg  -16.0736 11.0717 11.1884
LeftLeg  -0.274785 -2.5455 -2.87918
LeftFoot  4.83007 1.41811 -10.1695
LeftToes  -2.158e-010 -1.26819e-010 -1.05346e-011
1659
root  -2.91487 40.128 -15.9615 14.8524 5.50496 -1.61104
RightUpLeg  -15.4952 -5.3026 -4.20961
RightLeg  -3.06994 -13.3798 2.3767
RightFoot  5.16137 -1.13336 8.02402
RightToes  -5.28216e-011 1.2921e-014 -6.02303e-014
Spine  6.41407 0.19365 1.06427
Spine1  -1.81704 1.53502 -7.8011
HEad  -42.5187 18.9953 -18.8653
LeftShoulder1  1.01687 -8.9377 0.304733
LeftArm  45.864 -67.3972 -43.3376
LeftForeArm  -12.2075 -66.2035 -28.5557
LeftHand  1.25859 -0.458492 -24.7055
RightShoulder  0.222968 25.3224 -8.78918
RightArm  -12.8401 29.5738 0.495934
RightForeArm  43.7541 77.663 99.0733
RightHand  1.44207 -0.599021 34.221
LeftUpLeg  -16.1645 11.0661 11.2078
LeftLeg  -0.264195 -2.66001 -2.87117
LeftFoot  4.82259 1.4334 -10.2809
LeftToes  -2.158e-010 -1.26819e-010 -1.05346e-011
